
<svg width="100" height="100" viewBox="0 0 100 100" xmlns="http://www.w3.org/2000/svg">
  <path fill="#9B1C1C" fill-opacity="0.05" d="M0 0a50 50 0 0150 50 50 50 0 01-50 50 50 50 0 010-100zm50 0a50 50 0 0150 50 50 50 0 01-50 50 50 50 0 010-100zm0 8.33a41.67 41.67 0 00-41.67 41.67 41.67 41.67 0 0041.67 41.67 41.67 41.67 0 0041.67-41.67A41.67 41.67 0 0050 8.33zm0 8.34A33.33 33.33 0 0183.33 50 33.33 33.33 0 0150 83.33 33.33 33.33 0 0116.67 50 33.33 33.33 0 0150 16.67zm0 8.33A25 25 0 0075 50 25 25 0 0050 75 25 25 0 0025 50 25 25 0 0050 25zm0 8.33A16.67 16.67 0 0166.67 50 16.67 16.67 0 0150 66.67 16.67 16.67 0 0133.33 50 16.67 16.67 0 0150 33.33zm0 8.34A8.33 8.33 0 0158.33 50 8.33 8.33 0 0150 58.33 8.33 8.33 0 0141.67 50 8.33 8.33 0 0150 41.67zM100 50a50 50 0 0150 50 50 50 0 01-50 50 50 50 0 010-100zm0 8.33a41.67 41.67 0 00-41.67 41.67 41.67 41.67 0 0041.67 41.67 41.67 41.67 0 0041.67-41.67A41.67 41.67 0 00100 58.33zm0 8.34A33.33 33.33 0 01133.33 100 33.33 33.33 0 01100 133.33 33.33 33.33 0 0166.67 100 33.33 33.33 0 01100 66.67zm0 8.33A25 25 0 00125 100a25 25 0 00-25 25 25 25 0 00-25-25 25 25 0 0025-25zm0 8.33A16.67 16.67 0 01116.67 100 16.67 16.67 0 01100 116.67 16.67 16.67 0 0183.33 100 16.67 16.67 0 01100 83.33zm0 8.34A8.33 8.33 0 00108.33 100a8.33 8.33 0 00-8.33 8.33 8.33 8.33 0 00-8.33-8.33 8.33 8.33 0 008.33-8.33z"/>
</svg>
